<?xml version="1.0" encoding="utf-8"?>
<!-- Generator: Adobe Illustrator 27.2.0, SVG Export Plug-In . SVG Version: 6.00 Build 0)  -->
<svg version="1.1" id="Layer_1" xmlns="http://www.w3.org/2000/svg" xmlns:xlink="http://www.w3.org/1999/xlink" x="0px" y="0px"
	 viewBox="0 0 1920 1080" style="enable-background:new 0 0 1920 1080;" xml:space="preserve">
<style type="text/css">
	.st0{fill:#E9E7E6;}
	.st1{fill:#314545;}
	.st2{fill:#C6D3BF;}
	.st3{fill:#7D9B92;}
	.st4{fill:#546D6B;}
	.st5{fill:#FFFFFF;}
</style>
<g>
	<path class="st0" d="M1919.63,366.66c0,13.87,0,27.74,0,41.62c-6.89,0.23-14.38-1.25-20.56,0.96
		c-32.66,11.64-66.84,15.41-100.79,19.49c-25.42,3.06-44.32,16.44-62.11,32.48c-8.78,7.92-17.21,16.69-28.07,20.83
		c-30.01,11.43-63.43,16.44-81.8,47.9c-1.34,2.3-5.35,1.14-7.26-1.07c-10.7-12.34-21.54-5.67-33.75-2.13
		c-14.31,4.15-27.77,13.07-43.74,10.49l0.12,0.14c-0.05-1.49-0.11-2.98-0.16-4.48l-0.08,0.18c12.71,0.11,22.93-6.49,33.4-12.41
		c19.6-2.89,37.66-9.75,54.03-20.98l-0.19,0.1c23.78-4.19,45.85-12.94,66.66-25.07l-0.2,0.1c6.2,0.16,12.12-0.1,12.6-8.47
		l-0.17,0.18c3.54-0.02,6.71-0.77,8.5-4.28l-0.13,0.13c1.44-1.45,2.88-2.89,4.32-4.34c0,0-0.23,0.17-0.23,0.17
		c4.03-0.11,7.37-1.25,8.55-5.67c4.86-3.77,10.19-7.09,14.45-11.45c3.81-3.9,14.22-3.93,10.35-12.34
		c-2.49-5.41-9.86-7.35-16.27-7.39c-3.34-0.02-6.72,1.28-10.03,2.16c-28.46,7.61-56.89,5.9-86,3.21
		c-18.45-1.7-39.79-2.69-51.8,20.08c-6.98,13.22-36.84,17.76-53.88,11.17c2.04-5.95,10.79-6.83,10.87-16.99
		c-50.47,14.82-101.44,22.53-153.57,24.04c60.56,22.14,125.41-6.94,185.55,16.9c-0.69,3.76-10.47-0.35-9.26,6.82
		c1.02,6.05,6.47,6.08,11.3,6.85c10.61,1.68,22.19-3.88,31.92,4.26c-10.75,10.03-28.29,7.81-37.41,20.79
		c-7.37-0.73-14.3,1.01-21.03,3.81c-1.12-0.8-2.23-2.3-3.35-2.3c-61.95-0.14-123.91-5.86-185.83,3.82
		c-29.51,4.61-58.67,12.7-89.06,11.58c-37.17-1.38-74.3-0.36-111.58-3.51c-42.02-3.55-84.59,0.69-126.1,8.4
		c-29.12,5.4-58.17,10.02-87.55,13.46c-6.38,0.75-20.36-1.53-19.14,9.6c0.92,8.41,12.96,4.79,20.08,4.85
		c37.33,0.34,74.66,0.14,111.99,0.22c8.15,0.02,17.73-1.73,17.14,11.51c2.24,4.72,4.98,5.33,8.32,1.03
		c4.12-2.84,6.09-8.85,12.42-8.42c8.94,8.19,14.78,1.16,20.94-4.29l-0.25,0.14c8.14,0,16.76,1.2,21.01-8.48l-0.22,0.14
		c4.78,1.18,11.07-2.36,14.33,4.44c-11.37,11.91-31.49,7.36-40.64,21.1c-7.5,11.26-15.76,14.21-27.65,9.64
		c-4.05-1.55-9.09-2.78-11.6,0.52c-14.7,19.29-35.61,13.35-54.83,14.35c2.78-2.81,5.57-5.61,8.35-8.42
		c3.44-0.06,6.49-0.89,8.31-4.18c4.61,0,9.4,0.55,12.46-4.14c4.62,0.02,9.39,0.51,12.45-4.16c0.31-0.48,0.61-0.95,0.91-1.43
		c-0.27,0.51-0.54,1.02-0.81,1.54c-4.59,0.09-9.38-0.44-12.48,4.14c-4.59,0.04-9.31-0.28-12.41,4.19c-3.39,0.14-6.49,0.9-8.36,4.13
		c-22.17,2.7-42.76,10.14-62.28,20.81c-1.4,1.38-2.8,2.76-4.2,4.14c-19.77,1.41-38.92,6.05-59.46,2.02
		c-52.66-10.32-105.56-20.03-158.78-26.73c-58.09-7.32-110.36-28.47-159.93-58.17c2.32-1.37,4.75-4.1,6.93-3.91
		c45.15,4.03,86.68-18.44,131.32-17.95c1.5,0.02,3.02-1.85,5.47-3.46c-2.42-1.66-3.78-3.26-5.41-3.61
		c-21.69-4.75-43.05-4.95-65.44-1.91c-20.33,2.77-41.23,3.88-62.53-5.18c-19.68-8.37-41.63,0.22-61.93,6.69
		c-26.97-1.28-43.97-21.59-64.01-35.17c-25.7-17.43-50.35-33.82-83.24-22.84c-2.5-13.18,6.59-16.14,16.3-19.45
		c24.77-8.44,50.38-13.43,76.23-18.5c-11.33-5.45-22.3-7.9-34.2-8.43c-45.87-2.02-90.39,6.03-134.66,16.44
		c-35.5,8.35-71.65,6.58-107.08,3.06c-40.07-3.97-79.98-2.84-119.8-1.53c-15.69,0.52-30.04,13.9-47.58,16.89
		c51.12-1.2,100.66,12.18,149.73,12.38c33.4,0.13,61.09,16.91,92.83,15.52c4.86-0.21,7.34,3.16,8.37,7.65
		c-22.42,3.93-43.97,3.15-67.11-0.46c-51.53-8.04-103.57-26.36-156.35-0.93c-19.13,9.22-41.39,13.86-63.46,6.04
		c0-41.62,0-83.23,0-124.85c36.81-3.25,72.64,9.21,109.05,7.88c100.41-3.67,201.32,10.45,301.4-11.12
		c27.67-5.96,57.64-1.37,86.58,2.8c46.01,6.63,90.16-8.51,135-14.93c6.87-0.98,16.44,2.28,22.38-6.84
		c-45.5-11.78-91.08-11.14-136.58-11.2c0.05-2.1,0.1-4.2,0.15-6.29c19.31-2.58,38.62-5.16,57.93-7.75
		c-14.07-2.44-27.84-2.42-41.6-2.44c-40.83-0.06-81.97,3.04-122.42-0.93c-64.34-6.31-128.23-2.31-192.19,1.84
		c-10.47,0.68-23.43,0.27-33.71,9.68c21.14,2.8,40.78,5.4,60.41,8c-82.17,14.36-164.81-4.22-246.4,10.49
		C0.39,234.27,0.72,126.85,0,19.43C-0.1,4.32,2.61-0.01,18.8,0.01c475.28,0.54,950.56,0.44,1425.84,0.44
		c152.89,0,305.79,0.28,458.67-0.45c14.81-0.07,16.77,3.74,16.69,17.37c-0.65,115.04-0.37,230.09-0.37,345.13
		c-45.56,0-91.13,0-135.25,0c-1.17-7.58,7.53-5.65,4.37-14.38c-22.68,0-46.16,0-69.64,0c56.29-14.07,114.11-9.88,170.31-22.03
		c-7.23-0.96-14.51-1.03-21.79-0.95c-132.63,1.44-265.28-2.8-397.93,3.56c-42.65,2.04-85.25,6.73-128.16,5.28
		c-15.51-0.52-31.25,3.88-46.78,6.66c-4.92,0.88-13.06,2.56-5.26,10.23c10.51,10.32,3.32,16.33-11.11,24.12
		c38.09-2.03,69.07,6.62,100.75,4.08c16.7-1.34,32.83,3.9,49.12,5.11c37.5,2.79,74.8,9.51,112.92,4.53
		c27.12-3.54,54.89-4.42,82.23-3.27c19.29,0.81,38.35,3.7,57.43-0.94c33.27-8.08,66.26-18.99,101.17-13.56
		c19.18,2.98,38.21,5.2,57.61,3.3C1866.29,371.65,1892.96,369.19,1919.63,366.66z"/>
	<path class="st1" d="M0.39,1082.45c0-91.55,0-183.11,0-274.66c14.77-12.07,15.32-31.21,23.1-46.76c2.94-5.88,0.43-16.89,8.18-17.32
		c8.91-0.5,10.66,10.18,14.72,17.12c7.27,12.41,6.05,28.23,16.56,39.16c3.23,3.36,5.72,9.32,11.15,4.12
		c2.63-2.51,10.02-4.59,4.32-11.07c-1.33-1.51-5.06-1.68-1.97-5.95c18.26-25.2,18.81-58.01,35.48-83.98
		c1.61-1.42,3.22-2.83,4.82-4.25c5.84,27.01,19.81,50.44,32.66,74.36c2.37,4.41,8.13,7.32,3.34,14.26
		c-3.92,5.68-6.13,15.68,1.18,18.07c6.85,2.24,12.98-5.56,15.2-13.44c5.51-19.58,17.49-36.86,20.08-57.57
		c0.55-4.4,2.63-10.42,8.06-11.12c6.08-0.78,6.21,6.35,9.35,9.63c6.66,6.95,12.89,19.59,12.82,24.09
		c-0.3,18.98,21.79,31.15,13.68,51.31c-1.41,3.49-0.78,9.48,4.39,9.97c4.48,0.42,7.06-2.86,9.95-7.83
		c9.36-16.08,9.79-35.1,18.8-51.08c2.05-3.63,2.93-8.35,8.03-7.75c2.1,0.25,4.67,2.93,5.68,5.13c14.1,30.68,25.72,62.24,32.86,96.57
		c8.56-2.73,17.45-4.49,25.38-8.29c32.91-15.75,63.94-9.88,94.35,6.86c3.58,1.97,7.19,4.53,11.06,5.19
		c11.33,1.93,30.3-1.63,28.65-8.17c-3.01-11.91,4.77-17.02,5.82-24.88c3.01-22.57,18.15-41.21,18.55-64.4
		c0.09-5.47,3.91-12.73,11.27-13.27c8.93-0.65,10.08,8.79,9.91,13.25c-0.93,24.57,26.29,42.5,15.76,68.99
		c-0.36,0.91,0.68,3.43,1.4,3.58c16.05,3.3,1.28,32.84,24.99,29.42c4.04,16.59,17.45,12.37,28.65,12.85
		c23.02,1,44.9-6.91,67.55-8.87c2.38-0.21,6.45-2.05,6.61-3.49c3.17-27.61,21.88-50.48,23.7-78.43
		c8.58-14.16,12.61-29.93,15.92-45.91c1.3-6.27,2.68-13.06,10.23-13.23c6.72-0.15,8.24,6.86,9.45,11.82
		c1.97,8.09,2.47,16.56,12.95,18.39c-5.57,20.78,16.85,35.8,11.62,57.07c-1.07,4.34,5.92,10.92,10.58,2.03
		c7.44-14.18,18.32-26.9,19.82-43.8c2.09-8.55,0.42-22.36,16.25-11.63c4.5,23.6,17.93,44.08,23.71,67.45
		c1.38,5.58-0.84,13.16,5.32,18.45c22.28,19.12,40.68,41.85,58.71,64.93c3.51,4.49,7.38,11.93,14.76,8.69
		c7.63-3.34,14.44-10.7,14.73-18.41c1.01-26.37,14.96-48.52,21.6-72.96c1.01-3.73,2.69-8.98,7.81-7.86
		c2.52,0.55,4.96,4.53,6.17,7.48c8.19,19.89,20.68,38.32,20.47,61.88c5.85-7.41,19.24-5.75,19.54-15.91
		c0.82-27.77,18.19-50.37,22.54-76.99c0.66-4.02,4.21-11.38,11.1-10.36c5.53,0.81,5.87,6.95,7.63,11.37
		c3.04,7.64,8.39,15.39,9.58,22.49c3.31,19.79,25.22,34.56,15.24,57.74c-1.4,3.24,1.61,7.19,5.36,7.51
		c4.29,0.36,8.21-2.02,9.45-6.49c2.2-7.95,3.59-16.12,5.9-24.03c1.38-4.71,4.33-9.71,9.54-9.8c4.69-0.08,5.69,5.23,6.92,9.21
		c5.81,18.72,20.29,34.21,18.38,56.14c-0.61,7.04,8.22,12.62,17.38,9.01c14.12-5.56,28.38-10.85,42.06-17.38
		c6.65-3.17,14.5-7.69,15.51-15.74c2.57-20.47,15.32-37.23,19.41-57.24c1.76-8.61,0.62-23.41,11.72-24.37
		c12.28-1.06,9.92,13.53,13.31,21.8c1.21,2.96,4.34,5.17,6.69,7.62c5.48,5.72-3.52,19.39,8.42,19.93
		c16.4,0.74,5.58-15.65,5.86-19.43c1.53-20.51,19.43-34.31,19.41-54.43c-1.25-11.38,9.9-18.42,10.04-30.03
		c0.06-5.52,5.88-3.04,10.67,0.11c8.05,5.29,1.37,18.27,12.38,20.94c3.27,16.11,22.09,34.38,17.08,43.35
		c-10.03,17.92,13.42,29.24,2.59,43.7c-0.07,0.1,2.74,3.32,4.46,3.63c7.29,1.28,10.4,5.27,14.45,11.93
		c7.82,12.87,22.68,4.04,34.29,6.24c8.8,1.67,10.5-7.2,12.01-11.51c7.28-20.77,12.96-42.11,19.2-63.25
		c5.27-18.28,14.28-22.51,28.39-7.59c-9.57,16.02,10.58,22.16,11.78,35.76c1.68,19.06,11.61,36.94,9.66,62.16
		c19.78-22.33,17.4-46.08,26.6-65.37c2.05-4.3,3.46-10.18,8.86-10.67c6.64-0.61,7.86,6.71,7.69,10.33
		c-0.75,15.47,22.44,22.02,14.17,40.42c-1.6,3.57,5.29,5.55,9.42,5.02c11.04-1.41,13.2-8.75,13.79-18.89
		c1.06-18.13,7.17-39.19,20.7-46.64c9.72-5.34,10.64,20.09,19.92,28.2c5.26,4.6,3.5,9.7,5.07,14.57
		c2.33,7.24,1.61,18.89,13.24,17.89c9.48-0.82,5.31-10.53,7.47-16.34c4.25-11.4,4.61-29,15.69-32.16
		c12.33-3.51,8.68,15.61,15.8,22.32c2.47,2.33,4.12,5.53,6.5,7.99c4.09,4.23-5.04,16.49,8.07,14.57c9.12-1.33,10.86-8.83,13.83-17.5
		c7.47-21.81,13.55-43.96,20.22-65.97c1.97-6.51,8.14-17.85,14.46-4.73c11.44,23.77,29.85,45.74,25.45,75.05
		c-0.95,6.33,0.94,10.8,7.39,12.85c7.67,2.44,7.77-4.33,11.3-7.98c9.43-9.72-7.02-15.11-3.99-17.98
		c11.44-10.86,7.81-28.23,13.94-36.83c12.67-17.77,13.16-38.17,21.77-56.16c2.54-5.3,3.13-13.85,10.28-14.09
		c8.98-0.29,9.28,9.15,11.43,15.26c5.89,16.76,16.45,31.44,18.89,50.03c1.02,7.81,11.1,14.49,7.18,30.21
		c26.83-18.48,21.39-45.83,31.3-65.66c8.23-16.47,11.86-36.4,18.87-54.32c2.62-6.69,8.42-8.62,11.61-0.72
		c6.05,15,16.02,30.14,18.51,44.18c2.77,15.57,8.32,24,19.64,31.65c0,99.88,0,199.75,0,299.63
		C1279.88,1082.45,640.13,1082.45,0.39,1082.45z"/>
	<path class="st2" d="M1022.23,612.25c19.23-1.01,40.13,4.94,54.83-14.35c2.51-3.3,7.56-2.07,11.6-0.52
		c11.89,4.57,20.15,1.62,27.65-9.64c9.15-13.74,29.26-9.19,40.64-21.1c-3.26-6.8-9.55-3.26-14.33-4.44
		c9.95-10.65,22.48-8.23,34.85-7.02c24.59,2.4,49.17,6.24,73.8,6.61c61.24,0.94,122.5,0.01,183.75,0.4
		c16.21,0.1,31.08-3.2,46.23-8.9c19.81-7.46,38.16-19.66,60.26-20.4c0.05,1.49,0.11,2.98,0.16,4.47c-1.35,0.22-2.69,0.45-4.04,0.68
		c0.36,0.66,0.71,1.31,1.07,1.97c0.95-0.93,1.9-1.86,2.85-2.79c15.97,2.58,29.43-6.34,43.74-10.49
		c12.21-3.54,23.05-10.21,33.75,2.13c1.91,2.2,5.92,3.37,7.26,1.07c18.38-31.46,51.79-36.47,81.8-47.9
		c10.86-4.14,19.29-12.91,28.07-20.83c17.79-16.05,36.68-29.43,62.11-32.48c33.95-4.08,68.13-7.85,100.79-19.49
		c6.19-2.2,13.67-0.73,20.56-0.96c0,19.42,0,38.84,0,58.26c-1.65-1.22-3.85-2.1-4.84-3.73c-5.58-9.1-3.43-26.4-15.1-27.15
		c-14.49-0.94-6.88,18.52-14.78,25.88c-3.81,3.54-5.44,15.81-11.87,8.82c-13.13-14.29-11.89,0.56-14.52,5.88
		c-4.87,9.88-8.61,20.32-13.1,30.4c-1.44,3.25-4.07,10.42-7.6,5.49c-9.74-13.6-8.88-0.85-11.69,3.72
		c-3.8,6.18-3.45,14.65-10.34,19.59c-9.42-7.91-5.67-22.94-18.06-30.46c-5.12,10.2-9.9,19.87-14.83,29.47
		c-1.15,2.24,0.46,9.7-3.98,5.92c-15.7-13.34-13.04,5.07-16.3,9.61c-7.97,11.08-7.84,25.92-15.35,37.78
		c-2.07,3.27,0.62,10.21-6.16,10.57c-5.88,0.31-7.17-5.34-9.51-9.56c-5.74-10.4-2.27-24.97-15.04-32.66
		c-11.86,9.6-14.34,24.78-21.87,36.89c-2.19,3.52,1.64,11.17-6.57,10.56c-5.53-0.41-7.99-4.7-10.34-9.11
		c-4.63-8.69-9.51-17.24-14.68-26.57c-10.28,11.31-12.6,24.28-15.82,36.85c-4.15,16.16-18.13,16.87-30.75,19.84
		c-12.85,3.02-10.43-9.69-15.58-14.51c-7.69-7.2-4.91-20.04-14.52-25.79c-15.36,15.22-13.43,38.07-26.13,57.48
		c-3.38-17.89-9-30.49-20.13-42.35c-14.77,25.08-11.99,61.1-48.33,68.34c-2.77,0.96-5.54,1.92-8.3,2.88
		c-16.74,6.25-26.87,1.62-28.97-17.19c-0.37-3.3-2.44-6.42-3.81-9.58c-1.41-3.25-3.3-6.52-7.25-6.36c-4.19,0.16-4.82,3.93-6.05,7.25
		c-3.49,9.41-7.39,18.67-12.2,30.68c-10.61-19.6-10.51-41.5-27.36-58.09c-5.25,14.6-11.26,27.99-14.68,42.01
		c-2.3,9.45-5.99,11.72-15.24,11.33c-27.43-1.16-37.05-8.37-46.9-35.78c-2.12-5.89-1.31-16.38-9.62-16.14
		c-8.17,0.23-6.75,10.9-9.57,16.83c-3.3,6.96-3.69,15.36-11.03,22.25c-2.66-7.64-5.26-13.3-6.53-19.25
		c-1.26-5.91,0.75-14.16-6.83-15.73c-7.39-1.52-10.03,6.8-12.33,11.8c-3.09,6.72-6.3,12.16-13.7,14.12
		c-11.33,3-5.82-13.01-14.11-13.26c-8.92,8.23-2.96,27.55-17.43,28.09c-8.9,0.33-10.79-14.89-16.17-22.89
		c-0.59-0.87-2.22-1.04-3.98-1.79c-6.85,12.47-14.97,24.37-15.62,39.41c-0.28,6.35-0.66,12.91-8.48,14.76
		c-10.11,2.39-7.23-7.98-11-11.87c-3.08-3.17-2.93-10.24-9.48-8.96c-4.81,0.94-4.19,6.63-5.85,10.18c-1.9,4.06-2.78,8.59-4.53,14.31
		c-5.26-6.35-9.12-11.46-11.38-18.4c-1.67-5.15-0.89-14.71-9.19-14.02c-7.49,0.62-6.3,9.81-8.62,15.23
		c-3.8,8.86-6.94,18.07-9.56,27.35c-1.78,6.29-4.84,9.38-11.53,9.32c-7.24-0.07-11.78-3.09-13.56-10.18c-1-4-2-8.02-3.21-11.96
		c-2.9-9.47-1.66-24.42-13.2-25.18c-10.07-0.66-6.98,14.56-11.41,21.78c-3.35,5.46-5.91,10.57-6.04,17.14
		c-0.34,17.43-8.98,23.65-25.67,18.05c-2.27-0.07-4.55-0.14-6.82-0.21c-13.55-3.01-29.6-1.06-34.12-20.29
		c-2.13-9.07-3.26-22.67-13.71-23.42c-9.19-0.66-9.27,13.5-14.2,20.58c-2.06,2.96-0.42,9.39-6.9,7.86
		c-5.23-1.23-3.88-6.15-4.67-10.12c-3.15-15.94-10.65-30.11-17.87-46.04c-10.3,13.51-14.77,27.06-19.19,40.68
		c-2.08,6.41-7.07,11.04-13.5,11.33c-7.41,0.33-8.02-7.31-8.54-12.19c-0.84-7.94-5.03-13.91-8.28-20.63
		c-2.31-4.79-1.39-12.97-7.48-13.55c-8.51-0.81-8.11,8.88-9.19,13.81c-4.63,21.15-16.59,23.3-34.75,17.07
		c-14.29-4.9-29.23-8.81-44.19-10.61c-19.46-2.34-34.69-7.15-36.79-30.35c-0.5-5.47-3.09-12.03-10.45-15.61
		c-10.43,9.37-8.74,30.01-30.81,29.98c-25.59-0.03-12.35-28.1-28.09-33.67c-7.07,2.68-5.6,10.58-9.28,15.34
		c-1.97,2.55-2.53,7.08-7.09,6.18c-3.64-0.71-5.96-3.59-6.53-7.19c-1.4-8.98-3.01-21.92-11.6-21.93c-9.4-0.02-5.3,14.99-10.6,21.97
		c-1.94,2.55-2.76,6.43-2.96,9.77c-1.29,21.49-15.34,27.04-33.7,28.34c-17.34,1.22-33.61,2.41-35.82-21.83
		c-0.48-5.29-3.64-11.68-11.39-14.87c-2.24,6.01-4.68,11.49-6.31,17.21c-1.48,5.19-0.98,13.06-7.61,12.93
		c-7.23-0.14-7.45-8.2-9.16-14.06c-2.92-10-5.18-20.53-14.75-28.99c-6.15,13.11-9.96,25.55-18.53,35.87
		c-16.73-15.06-10.38-40.87-27.15-55.68c-7.68,7.07-7.3,16.86-11.13,24.72c-4.41,9.06-3.37,23.91-12.86,26.49
		c-11.46,3.11-14.58-12.28-21.65-19.25c-4.88-4.81-8.09-11.37-13.11-15.99c-15.59-14.36-22.83-40.18-45.09-43.77
		c-18.94-3.06-22.33-16.41-30.04-27.71c-2.93-4.3-3.29-10.4-4.68-15.71c-1.06-4.02-1.6-8.71-7.14-8.51
		c-5.64,0.2-5.42,5.16-6.43,9.08c-0.86,3.33-2.18,6.53-3.19,9.83c-1.35,4.44-1.22,11.34-7.08,10.79c-3.78-0.36-7.47-5.49-10.54-9.05
		c-7.69-8.91-4.65-22.66-13.38-31.94c-10.16,5.61-8.9,19.13-18.74,24.69c-6.4-6.27-6.13-15.2-9.72-22.37
		c-1.54-3.07-2.73-6.79-6.76-6.8c-4.49-0.01-4.42,4.41-5.95,7.34c-4.91,9.36-5.53,20.84-13.55,29.71
		c-3.64-11.73-10.81-19.57-16.97-28.72c-9.12,8.78-10.68,20.2-16.57,29.11c-5.2-2.35-8.1-5.96-9.65-10.83
		c-2.26-7.13-3.27-17.9-11.37-17.83c-8.36,0.07-8.66,11.37-9.72,18.06c-3.85,24.18-15,37.93-41.51,34.3
		c-3.8-0.52-7.99,1.7-11.98,2.76c-11.7,3.09-18.42-1.45-21.08-13.16c-3.51-15.46-12.05-28.52-19.62-44.94
		c-2.82,5.27-4.77,7.49-5.19,9.97c-1,5.93-3.76,12.46-9.12,12.31c-5.94-0.16-9.66-7.71-10.86-12.95
		c-2.46-10.72-9.56-18.36-13.2-28.68c-10.96,10.02-6.11,27.64-21.16,32.76c0-16.65,0-33.29,0-49.94
		c22.07,7.82,44.33,3.17,63.46-6.04c52.78-25.42,104.82-7.11,156.35,0.93c23.14,3.61,44.69,4.39,67.11,0.46
		c33.04-9.03,67.71-11.33,99.87-24.06c32.89-10.98,57.54,5.41,83.24,22.84c20.03,13.58,37.03,33.9,64.02,35.18
		c1.91,2.89,3.81,5.77,5.71,8.66c5.04,7.54,12.43,10.88,21.14,11.84c7.88,3.95,15.38,8.98,24.72,8.82
		c49.57,29.7,101.84,50.85,159.93,58.17c53.21,6.71,106.12,16.41,158.78,26.73c20.55,4.03,39.7-0.61,59.46-2.02l-0.04-0.04
		c9.71,9.6,31.82,3.55,45.8-12.54l-0.19,0.14c4.7-0.02,9.5,0.24,12.68-4.29L1022.23,612.25z"/>
	<path class="st3" d="M0.39,537.29c15.04-5.12,10.2-22.74,21.16-32.76c3.64,10.32,10.74,17.95,13.2,28.68
		c1.2,5.24,4.93,12.79,10.86,12.95c5.37,0.15,8.12-6.38,9.12-12.31c0.42-2.48,2.37-4.7,5.19-9.97
		c7.57,16.42,16.12,29.48,19.62,44.94c2.66,11.71,9.38,16.25,21.08,13.16c3.99-1.05,8.18-3.28,11.98-2.76
		c26.51,3.63,37.66-10.12,41.51-34.3c1.07-6.69,1.37-17.99,9.72-18.06c8.1-0.07,9.11,10.7,11.37,17.83
		c1.54,4.87,4.45,8.48,9.65,10.83c5.89-8.91,7.45-20.33,16.57-29.11c6.16,9.15,13.33,16.99,16.97,28.72
		c8.02-8.88,8.64-20.35,13.55-29.71c1.54-2.93,1.46-7.35,5.95-7.34c4.03,0.01,5.22,3.73,6.76,6.8c3.59,7.17,3.33,16.11,9.72,22.37
		c9.83-5.56,8.58-19.08,18.74-24.69c8.72,9.27,5.68,23.03,13.38,31.94c3.07,3.56,6.75,8.69,10.54,9.05
		c5.86,0.55,5.74-6.35,7.08-10.79c1-3.3,2.32-6.5,3.19-9.83c1.01-3.92,0.79-8.88,6.43-9.08c5.53-0.2,6.08,4.48,7.14,8.51
		c1.4,5.31,1.75,11.41,4.68,15.71c7.71,11.3,11.09,24.65,30.04,27.71c22.26,3.6,29.49,29.42,45.09,43.77
		c5.02,4.62,8.23,11.18,13.11,15.99c7.07,6.96,10.18,22.36,21.65,19.25c9.48-2.57,8.44-17.43,12.86-26.49
		c3.83-7.86,3.45-17.65,11.13-24.72c16.76,14.82,10.41,40.62,27.15,55.68c8.57-10.31,12.38-22.76,18.53-35.87
		c9.56,8.46,11.82,18.99,14.75,28.99c1.71,5.86,1.93,13.92,9.16,14.06c6.63,0.12,6.13-7.74,7.61-12.93
		c1.63-5.71,4.06-11.2,6.31-17.21c7.75,3.19,10.91,9.58,11.39,14.87c2.21,24.24,18.48,23.05,35.82,21.83
		c18.37-1.29,32.42-6.84,33.7-28.34c0.2-3.34,1.02-7.22,2.96-9.77c5.31-6.98,1.2-21.99,10.6-21.97c8.59,0.01,10.2,12.95,11.6,21.93
		c0.56,3.6,2.89,6.48,6.53,7.19c4.56,0.9,5.12-3.63,7.09-6.18c3.68-4.76,2.21-12.66,9.28-15.34c15.74,5.57,2.5,33.64,28.09,33.67
		c22.07,0.02,20.38-20.61,30.81-29.98c7.35,3.58,9.95,10.14,10.45,15.61c2.1,23.2,17.33,28.01,36.79,30.35
		c14.96,1.8,29.9,5.71,44.19,10.61c18.17,6.23,30.12,4.08,34.75-17.07c1.08-4.94,0.68-14.62,9.19-13.81
		c6.09,0.58,5.17,8.77,7.48,13.55c3.25,6.72,7.44,12.69,8.28,20.63c0.52,4.88,1.13,12.52,8.54,12.19
		c6.43-0.29,11.42-4.93,13.5-11.33c4.42-13.63,8.89-27.17,19.19-40.68c7.22,15.93,14.72,30.11,17.87,46.04
		c0.79,3.98-0.56,8.89,4.67,10.12c6.48,1.52,4.84-4.9,6.9-7.86c4.93-7.07,5.01-21.23,14.2-20.58c10.45,0.75,11.58,14.35,13.71,23.42
		c4.52,19.23,20.57,17.28,34.12,20.29c-4.55,15.54-9.28,31.04-13.56,46.66c-1.54,5.63-5.57,8.01-10.35,8.74
		c-5.1,0.77-6.72-3.88-8.33-7.68c-4.81-11.42-9.63-22.84-14.23-34.35c-1.57-3.92-2.85-8.31-7.56-8.81
		c-6.17-0.65-7.38,4.91-9.72,9.06c-5.08,9.01-3.35,19.8-9.83,29.03c-8.97,12.77-14.42,10.97-20-1.31
		c-5.01-11.03-7.06-23.6-16.53-32.22c-9.99,4.18-5.19,21-15.51,20.09c-10.1-0.88-5.64-15.64-12.11-22
		c-1.89-1.86-2.95-4.58-4.35-6.93c-4.02-6.78-7.51-4.32-10.51,0.77c-4.76,8.08-2.96,24.04-12.52,23.99
		c-11.83-0.06-6.8-17.23-13.21-24.9c-1.32-1.58-2.7-3.13-3.84-4.83c-3.46-5.16-2.27-16.71-11.41-13.81
		c-7.56,2.4-13.38,8.86-13.51,20.45c-0.12,10.82,2.21,26.21-14.25,30.91c-15.83-10.73-14.17,3.08-16.25,11.63
		c-6.63-0.61-9.74-5.35-11-10.88c-2.46-10.77-7-25.85-14.46-27.19c-11.4-2.05-8.27,16.59-16.56,22.78
		c-10.47-1.84-10.97-10.3-12.95-18.39c-1.21-4.96-2.74-11.97-9.45-11.82c-7.56,0.17-8.94,6.97-10.23,13.23
		c-3.31,15.98-7.33,31.75-15.92,45.9c-6.87-2.53-17.04-2.86-16.15-12.83c1.6-18.07-11.18-30.48-15.81-45.99
		c-0.87-2.92-2.4-7.07-6.87-6.53c-4.95,0.6-6.99,4.51-6.93,8.87c0.19,13.61-8.51,24.39-11.33,37.07c-1.21,5.47-6.04,10.09-12.2,9.38
		c-7.99-0.91-2.49-7.44-3.72-11.21c-6.1-18.72-12.89-37.22-19.83-55.65c-1.58-4.21-2.84-10.5-9.03-9.69
		c-5.3,0.69-7.13,6.37-8.66,10.81c-3.83,11.07-8.51,22.15-10.1,33.61c-1.7,12.23-6.59,11.81-14.87,6.98
		c-14.91-8.69-29.83-17.37-44.71-26.12c-7.99-4.7-15.32-8.91-24.12-0.34c-6.83,6.64-15.98,16.79-22.96,15.95
		c-9.38-1.13-8.65-16.32-14.22-24.46c-2.29-3.35-3.12-8.24-7.99-8.34c-6.05-0.13-7.41,4.92-9.01,9.67
		c-4.17,12.38-5.46,26.2-14.88,34.75c-11.6-2.22-6.71-15.85-17-18.97c-10.05,11.37-8.09,28.97-19.23,40
		c-6.13-15.2-12.11-30.14-18.18-45.05c-1.24-3.05-1.55-7.39-5.88-7.59c-5.25-0.25-6.72,4.15-7.63,8.18
		c-4.54,20.06-18.21,37.32-17.87,58.91c0.07,4.5-2.25,8.38-7.25,8.13c-2.15-0.11-6.09-3.1-5.94-4.41
		c2.06-18.75-9.4-33.91-12.8-50.66c-4.24-20.89-13.69-39.12-20.41-58.63c-3.95-11.47-11.12-9.29-15.79-0.64
		c-4.87,9.02-7.94,19.02-11.62,28.66c-2.29,6-6.44,9.36-12.72,7.75c-5.24-1.35-8.49-3.53-8.85-11.21
		c-1.06-22.09-10.37-42.12-20.06-61.71c-2.48-5.01-6.51-14.77-11.78-3.09c-8.69,19.28-15.73,39.39-21.96,59.62
		c-1.05,3.42,3.79,8.78-3.48,10.63c-9.77,2.49-7.59-5.69-8.46-10.22c-3.13-16.3-10.13-31.18-16.09-46.45
		c-2.14-5.48-1.9-14.17-10-13.47c-7.56,0.65-6.97,9.49-8.93,14.98c-5.23,14.64-9.65,29.57-14.4,44.39
		c-1.61,1.42-3.22,2.83-4.82,4.25c-6.61,0.39-9.66-3.06-11.67-9.2c-3.82-11.66-8.56-23.01-12.84-34.52
		c-1.45-3.91-2.63-8.37-7.96-7.68c-4.22,0.54-4.24,4.86-5.39,7.97c-4.29,11.65-5.35,24.95-19.12,36.39
		c1.33-21.1-6.96-36.23-14.03-51.63c-2.91-6.35-3.6-17.75-12.57-16.35c-7.64,1.19-7.93,12.23-9.68,19.25
		c-3.63,14.54-5.58,29.54-18.3,39.77C0.39,637.16,0.39,587.23,0.39,537.29z"/>
	<path class="st4" d="M1483.55,670.62c2.77-0.96,5.54-1.92,8.3-2.87c5.73,10.74,11.12,22.34,15.26,33.01
		c5.33,13.75,17.57,26.24,14.8,42.76c-1.24,7.4-2.22,15.44,6.57,16.69c7.26,1.03,14.36-2.59,16.46-12.08
		c5.08-22.91,18.32-43.03,22.93-66.25c0.99-5.01,5.39-15.02,12-6.74c7.88,9.87,14.64,22.22,17.07,34.46
		c3.16,15.86,19.51,27.94,12.38,46.98c-1.58,4.21,6.66,7.93,12.38,8.64c3.3,0.41,4.35-1.59,4.6-4.98
		c1.96-26.78,15.58-50.38,21.07-76.24c0.82-3.86,3.37-8.53,8.08-8.44c6.92,0.14,7.82,6.69,9.96,11.65
		c1.69,3.91-1.26,11.07,6.5,10.71c5.17-0.24,6.81-5.17,9.9-8.76c10.33-11.98,7.01-28.04,14.12-40.66c2.31-4.1,3.27-10.13,9.01-10.38
		c7.09-0.3,8.02,6.45,10.19,11.32c4.95,11.11,5.99,24.19,16.22,34.72c8.07-24.04,15.39-46.1,22.93-68.08
		c1.6-4.68,4.45-9.44,9.53-10.17c6.9-0.99,7.16,6.04,8.06,10.01c2.59,11.38,12,20.01,11.63,32.77c-0.18,6.2,5.47,11.14,11.96,12.84
		c4.82,1.27,5.07-2.42,5.56-6.12c2.89-21.86,17.35-39.68,21.55-61.18c0.69-3.55,1.08-9.23,6.6-9.13c4.7,0.08,6.46,4.57,8.11,8.4
		c1.36,3.17,2.8,6.33,3.79,9.62c1.31,4.34,3.66,7.55,8.31,8.12c6.83,0.83,6.33-5,8.71-9.04c8.74-14.84,9.77-32.23,16.84-47.58
		c2.8-6.08,3.27-16.02,11.26-14.75c6.9,1.1,8.58,10.07,11.24,17.42c5.39,14.9,4.86,33.64,22.2,42.43c0,61.04,0,122.07,0,183.11
		c-11.32-7.66-16.88-16.08-19.64-31.65c-2.49-14.04-12.46-29.18-18.51-44.18c-3.19-7.9-8.99-5.97-11.61,0.72
		c-7.01,17.92-10.64,37.85-18.87,54.32c-9.91,19.83-4.47,47.18-31.3,65.66c3.92-15.72-6.16-22.41-7.18-30.21
		c-2.44-18.58-13-33.27-18.89-50.03c-2.15-6.11-2.45-15.55-11.43-15.26c-7.15,0.23-7.74,8.79-10.28,14.09
		c-8.61,17.99-9.1,38.39-21.77,56.16c-6.13,8.6-2.5,25.97-13.94,36.83c-3.02,2.87,13.42,8.27,3.99,17.98
		c-3.54,3.65-3.64,10.42-11.3,7.98c-6.45-2.05-8.34-6.52-7.39-12.85c4.39-29.3-14.01-51.27-25.45-75.05
		c-6.32-13.12-12.48-1.79-14.46,4.73c-6.67,22.01-12.75,44.15-20.22,65.97c-2.97,8.67-4.71,16.17-13.83,17.5
		c-13.11,1.92-3.98-10.34-8.07-14.57c-2.38-2.46-4.02-5.65-6.5-7.99c-7.12-6.71-3.47-25.83-15.8-22.32
		c-11.08,3.15-11.44,20.75-15.69,32.16c-2.16,5.81,2.01,15.52-7.47,16.34c-11.63,1-10.91-10.65-13.24-17.89
		c-1.57-4.87,0.19-9.97-5.07-14.57c-9.28-8.11-10.2-33.54-19.92-28.2c-13.53,7.44-19.64,28.51-20.7,46.64
		c-0.59,10.14-2.75,17.48-13.79,18.89c-4.12,0.53-11.02-1.45-9.42-5.02c8.27-18.4-14.92-24.95-14.17-40.42
		c0.17-3.62-1.05-10.95-7.69-10.33c-5.4,0.5-6.81,6.38-8.86,10.67c-9.2,19.29-6.82,43.04-26.6,65.37
		c1.95-25.22-7.98-43.1-9.66-62.16c-1.2-13.59-21.36-19.74-11.78-35.77c9.27-4.14,13.15-13.62,19.88-19.97
		c9.45-8.92-9.12-9.25-2.97-18.25C1467.98,731.88,1475.14,700.89,1483.55,670.62z"/>
	<path class="st3" d="M1919.63,599.71c-17.34-8.79-16.81-27.53-22.2-42.43c-2.66-7.36-4.34-16.33-11.24-17.42
		c-7.98-1.27-8.46,8.67-11.26,14.75c-7.07,15.35-8.11,32.74-16.84,47.58c-2.38,4.04-1.89,9.87-8.71,9.04
		c-4.64-0.57-7-3.77-8.31-8.12c-0.99-3.29-2.43-6.45-3.79-9.62c-1.65-3.83-3.41-8.31-8.11-8.4c-5.52-0.1-5.91,5.58-6.6,9.13
		c-4.2,21.5-18.66,39.32-21.55,61.18c-0.49,3.7-0.74,7.38-5.56,6.12c-6.5-1.71-12.14-6.64-11.96-12.84
		c0.37-12.76-9.04-21.39-11.63-32.77c-0.9-3.96-1.16-11-8.06-10.01c-5.08,0.73-7.93,5.49-9.53,10.17
		c-7.54,21.99-14.86,44.05-22.93,68.08c-10.23-10.53-11.27-23.6-16.22-34.72c-2.17-4.87-3.1-11.62-10.19-11.32
		c-5.74,0.25-6.7,6.28-9.01,10.38c-7.11,12.61-3.79,28.67-14.12,40.66c-3.09,3.58-4.73,8.52-9.9,8.76c-7.76,0.36-4.81-6.8-6.5-10.71
		c-2.14-4.95-3.04-11.5-9.96-11.65c-4.71-0.1-7.26,4.57-8.08,8.44c-5.49,25.86-19.11,49.46-21.07,76.24
		c-0.25,3.39-1.3,5.39-4.6,4.98c-5.72-0.71-13.96-4.43-12.38-8.64c7.12-19.04-9.22-31.11-12.38-46.98
		c-2.44-12.24-9.2-24.59-17.07-34.46c-6.61-8.28-11.01,1.73-12,6.74c-4.61,23.22-17.85,43.34-22.93,66.25
		c-2.1,9.49-9.2,13.11-16.46,12.08c-8.79-1.25-7.81-9.28-6.57-16.69c2.77-16.52-9.46-29.01-14.8-42.76
		c-4.14-10.67-9.53-22.27-15.26-33.01c36.34-7.25,33.56-43.28,48.33-68.35c11.13,11.86,16.75,24.46,20.13,42.35
		c12.7-19.41,10.76-42.26,26.13-57.48c9.6,5.75,6.82,18.59,14.52,25.79c5.15,4.82,2.73,17.53,15.58,14.51
		c12.62-2.96,26.6-3.68,30.75-19.84c3.22-12.57,5.55-25.54,15.82-36.85c5.18,9.33,10.05,17.89,14.68,26.57
		c2.36,4.42,4.81,8.71,10.34,9.11c8.21,0.6,4.38-7.05,6.57-10.56c7.53-12.11,10.01-27.29,21.87-36.89
		c12.77,7.69,9.3,22.26,15.04,32.66c2.33,4.22,3.63,9.87,9.51,9.56c6.78-0.36,4.08-7.29,6.16-10.57
		c7.51-11.86,7.38-26.7,15.35-37.78c3.27-4.54,0.61-22.95,16.3-9.61c4.44,3.77,2.82-3.68,3.98-5.92c4.93-9.6,9.71-19.27,14.83-29.47
		c12.39,7.51,8.64,22.54,18.06,30.46c6.89-4.94,6.54-13.41,10.34-19.59c2.81-4.57,1.95-17.32,11.69-3.72
		c3.53,4.93,6.15-2.24,7.6-5.49c4.48-10.09,8.23-20.52,13.1-30.4c2.62-5.32,1.38-20.17,14.52-5.88c6.43,6.99,8.06-5.27,11.87-8.82
		c7.91-7.35,0.29-26.82,14.78-25.88c11.68,0.75,9.53,18.06,15.1,27.15c1,1.62,3.2,2.5,4.84,3.73
		C1919.63,510.93,1919.63,555.32,1919.63,599.71z"/>
	<path class="st5" d="M1919.63,366.66c-26.67,2.52-53.34,4.98-80,7.59c-19.39,1.9-38.43-0.32-57.61-3.3
		c-34.91-5.43-67.91,5.48-101.17,13.56c-19.08,4.64-38.15,1.75-57.43,0.94c-27.34-1.15-55.11-0.27-82.23,3.27
		c-38.12,4.98-75.42-1.74-112.92-4.53c-16.28-1.21-32.42-6.45-49.12-5.11c-31.67,2.54-62.65-6.12-100.75-4.08
		c14.43-7.79,21.61-13.8,11.11-24.12c-7.81-7.67,0.33-9.35,5.26-10.23c15.52-2.79,31.26-7.18,46.78-6.66
		c42.91,1.44,85.51-3.24,128.16-5.28c132.64-6.35,265.29-2.12,397.93-3.56c7.28-0.08,14.56-0.01,21.79,0.95
		c-56.2,12.15-114.02,7.95-170.31,22.03c23.48,0,46.96,0,69.64,0c3.16,8.73-5.54,6.8-4.37,14.38c44.13,0,89.69,0,135.25,0
		C1919.63,363.89,1919.63,365.28,1919.63,366.66z"/>
	<path class="st5" d="M0.39,341.69c81.59-14.72,164.23,3.86,246.4-10.49c-19.63-2.6-39.27-5.2-60.41-8
		c10.28-9.42,23.24-9,33.71-9.68c63.97-4.15,127.85-8.15,192.19-1.84c40.45,3.97,81.59,0.87,122.42,0.93
		c13.77,0.02,27.54,0,41.6,2.44c-19.31,2.58-38.62,5.16-57.93,7.75c-0.05,2.1-0.1,4.2-0.15,6.29c45.5,0.06,91.09-0.58,136.58,11.2
		c-5.94,9.12-15.51,5.86-22.38,6.84c-44.85,6.43-88.99,21.56-135,14.93c-28.94-4.17-58.91-8.77-86.58-2.8
		c-100.09,21.57-200.99,7.45-301.4,11.12c-36.41,1.33-72.25-11.13-109.05-7.88C0.39,355.57,0.39,348.63,0.39,341.69z"/>
	<path class="st4" d="M0.39,687.1c12.72-10.23,14.67-25.23,18.3-39.77c1.75-7.02,2.04-18.06,9.68-19.25
		c8.96-1.4,9.65,10,12.57,16.35c7.06,15.4,15.35,30.53,14.03,51.63c13.77-11.44,14.84-24.75,19.12-36.39
		c1.14-3.11,1.17-7.43,5.39-7.97c5.33-0.68,6.51,3.77,7.96,7.68c4.28,11.51,9.02,22.87,12.84,34.52c2.02,6.14,5.06,9.59,11.67,9.2
		c-16.68,25.96-17.23,58.78-35.49,83.98c-3.09,4.27,0.64,4.44,1.97,5.95c5.7,6.48-1.7,8.56-4.32,11.07
		c-5.43,5.19-7.93-0.77-11.15-4.12c-10.51-10.93-9.29-26.75-16.56-39.16c-4.06-6.93-5.81-17.62-14.72-17.12
		c-7.75,0.44-5.24,11.44-8.18,17.32c-7.78,15.55-8.33,34.69-23.1,46.76C0.39,767.56,0.39,727.33,0.39,687.1z"/>
	<path class="st5" d="M1541.52,532.89c-22.1,0.74-40.45,12.94-60.26,20.4c-15.15,5.71-30.02,9.01-46.23,8.9
		c-61.25-0.39-122.51,0.53-183.75-0.4c-24.63-0.38-49.21-4.21-73.8-6.61c-12.38-1.21-24.9-3.63-34.85,7.02c0,0,0.22-0.14,0.21-0.14
		c-8.16-0.05-15.54,1.85-21.01,8.48c0,0,0.25-0.14,0.25-0.14c-7.41-0.7-14.36,0.91-20.94,4.28c-6.33-0.44-8.3,5.58-12.42,8.42
		c-2.77-0.34-5.55-0.68-8.32-1.03c0.59-13.24-8.99-11.5-17.14-11.51c-37.33-0.08-74.66,0.12-111.99-0.22
		c-7.13-0.07-19.16,3.55-20.08-4.85c-1.22-11.13,12.76-8.85,19.14-9.6c29.38-3.45,58.43-8.06,87.55-13.46
		c41.51-7.7,84.08-11.95,126.1-8.4c37.28,3.15,74.41,2.13,111.58,3.51c30.4,1.13,59.55-6.96,89.06-11.58
		c61.92-9.68,123.87-3.96,185.83-3.82c1.12,0,2.23,1.5,3.35,2.3c-4.12,2.88-8.23,5.75-12.35,8.62
		C1541.44,533.07,1541.52,532.89,1541.52,532.89z"/>
	<path class="st5" d="M387.17,458.65c-32.16,12.73-66.83,15.02-99.87,24.06c-1.03-4.49-3.5-7.87-8.37-7.66
		c-31.74,1.39-59.42-15.39-92.83-15.52c-49.07-0.2-98.61-13.58-149.73-12.38c17.54-2.99,31.89-16.38,47.58-16.89
		c39.82-1.31,79.73-2.44,119.8,1.53c35.42,3.51,71.58,5.29,107.08-3.06c44.27-10.41,88.79-18.46,134.66-16.44
		c11.9,0.52,22.88,2.97,34.2,8.43c-25.85,5.07-51.46,10.05-76.23,18.5C393.76,442.51,384.67,445.47,387.17,458.65z"/>
	<path class="st5" d="M1612.22,499.84c-9.74-8.14-21.31-2.58-31.92-4.26c-4.83-0.76-10.28-0.8-11.3-6.85
		c-1.21-7.18,8.56-3.07,9.26-6.82c-60.14-23.84-125,5.24-185.55-16.9c52.13-1.5,103.1-9.21,153.57-24.04
		c-0.09,10.15-8.83,11.04-10.87,16.99c17.04,6.59,46.9,2.06,53.88-11.17c12.02-22.76,33.35-21.78,51.8-20.08
		c29.12,2.69,57.55,4.4,86-3.21c3.31-0.89,6.69-2.18,10.03-2.16c6.41,0.04,13.77,1.98,16.27,7.39c3.87,8.41-6.54,8.43-10.35,12.34
		c-4.26,4.36-9.59,7.68-14.45,11.46c-2.85,1.89-5.7,3.77-8.55,5.65c0,0,0.23-0.17,0.23-0.17c-1.44,1.45-2.88,2.89-4.32,4.34
		c0,0,0.13-0.13,0.13-0.13c-3.69-0.28-6.61,0.98-8.5,4.28c0,0,0.17-0.18,0.17-0.18c-5.79,0.45-10.39,2.68-12.6,8.47
		c0,0,0.2-0.1,0.2-0.1c-24.34,2.71-46.85,10.29-66.66,25.07c0,0,0.19-0.1,0.19-0.1C1623.32,499.73,1617.77,499.78,1612.22,499.84z"
		/>
	<path class="st5" d="M586.01,545.98c-9.34,0.16-16.84-4.87-24.72-8.82c-3.01-11.18-7.53-19.66-21.14-11.84
		c-1.9-2.89-3.8-5.77-5.71-8.66c20.28-6.48,42.24-15.06,61.92-6.69c21.3,9.06,42.2,7.94,62.53,5.18
		c22.39-3.05,43.75-2.84,65.44,1.91c1.63,0.36,2.99,1.95,5.41,3.61c-2.45,1.61-3.97,3.48-5.47,3.46
		c-44.64-0.49-86.17,21.98-131.32,17.95C590.76,541.88,588.33,544.61,586.01,545.98z"/>
	<path class="st2" d="M1628.67,499.77c19.82-14.77,42.32-22.36,66.66-25.07C1674.53,486.83,1652.45,495.58,1628.67,499.77z"/>
	<path class="st2" d="M1030.58,603.83c-2.78,2.81-5.57,5.61-8.35,8.42c0,0,0.19-0.12,0.19-0.12c-4.68,0.08-9.5-0.24-12.68,4.28
		c0,0,0.19-0.14,0.19-0.14c-14.45-0.03-26.47,12.13-41.67,8.33l0.11,0.11c19.52-10.67,40.11-18.11,62.28-20.81
		C1030.65,603.91,1030.58,603.83,1030.58,603.83z"/>
	<path class="st2" d="M1612.22,499.84c5.55-0.06,11.09-0.11,16.64-0.17c-16.37,11.23-34.43,18.1-54.03,20.98
		c0,0-0.02-0.03-0.02-0.03C1583.93,507.65,1601.47,509.86,1612.22,499.84z"/>
	<path class="st2" d="M1541.44,533.07c4.12-2.87,8.24-5.75,12.35-8.62c6.73-2.81,13.66-4.55,21.03-3.82c0,0,0.02,0.03,0.02,0.03
		C1564.37,526.58,1554.14,533.18,1541.44,533.07z"/>
	<path class="st2" d="M1121.83,570.54c5.47-6.63,12.85-8.54,21.01-8.48C1138.6,571.74,1129.97,570.54,1121.83,570.54z"/>
	<path class="st2" d="M1101.15,574.68c6.58-3.37,13.52-4.99,20.94-4.28C1115.92,575.84,1110.09,582.87,1101.15,574.68z"/>
	<path class="st2" d="M1695.14,474.8c2.21-5.8,6.81-8.03,12.6-8.47C1707.25,474.7,1701.33,474.96,1695.14,474.8z"/>
	<path class="st2" d="M1051.35,595.5c-3.06,4.69-7.85,4.14-12.46,4.14l0.11,0.13c3.1-4.47,7.82-4.15,12.41-4.19L1051.35,595.5z"/>
	<path class="st2" d="M1051.42,595.59c3.11-4.58,7.9-4.05,12.48-4.14l-0.11-0.11c-3.05,4.67-7.83,4.18-12.45,4.16
		C1051.35,595.5,1051.42,595.59,1051.42,595.59z"/>
	<path class="st2" d="M1038.9,599.65c-1.82,3.29-4.87,4.13-8.31,4.18c0,0,0.07,0.08,0.07,0.08c1.87-3.23,4.96-3.99,8.36-4.13
		C1039.01,599.78,1038.9,599.65,1038.9,599.65z"/>
	<path class="st2" d="M1080.4,582.07c2.78,0.34,5.55,0.68,8.32,1.03C1085.38,587.4,1082.64,586.79,1080.4,582.07z"/>
	<path class="st2" d="M1707.57,466.51c1.89-3.3,4.81-4.56,8.5-4.28C1714.28,465.74,1711.11,466.49,1707.57,466.51z"/>
	<path class="st2" d="M1720.03,458.19c2.85-1.88,5.7-3.76,8.55-5.65C1727.4,456.94,1724.06,458.09,1720.03,458.19z"/>
	<path class="st2" d="M964.18,628.87c1.4-1.38,2.8-2.76,4.2-4.14c0,0-0.11-0.11-0.11-0.11c-1.38,1.4-2.75,2.81-4.13,4.21
		C964.14,628.82,964.18,628.87,964.18,628.87z"/>
	<path class="st2" d="M1063.91,591.45c0.27-0.51,0.54-1.02,0.81-1.54c-0.3,0.48-0.61,0.95-0.91,1.43
		C1063.8,591.34,1063.91,591.45,1063.91,591.45z"/>
	<path class="st2" d="M1715.94,462.36c1.44-1.45,2.88-2.89,4.32-4.34C1718.82,459.47,1717.38,460.92,1715.94,462.36z"/>
	<path class="st4" d="M116.77,698.86c4.74-14.81,9.17-29.74,14.4-44.39c1.96-5.5,1.37-14.33,8.93-14.98c8.1-0.7,7.86,7.99,10,13.47
		c5.96,15.27,12.96,30.16,16.09,46.45c0.87,4.53-1.31,12.71,8.46,10.22c7.27-1.85,2.42-7.21,3.48-10.63
		c6.23-20.23,13.27-40.34,21.96-59.62c5.27-11.68,9.3-1.92,11.78,3.09c9.69,19.58,18.99,39.62,20.06,61.71
		c0.37,7.68,3.61,9.86,8.85,11.21c6.28,1.62,10.42-1.75,12.72-7.75c3.69-9.64,6.76-19.64,11.62-28.66
		c4.67-8.65,11.84-10.83,15.79,0.64c6.72,19.52,16.17,37.75,20.41,58.63c3.4,16.75,14.87,31.91,12.8,50.66
		c-0.15,1.32,3.79,4.3,5.94,4.41c5,0.25,7.32-3.63,7.25-8.13c-0.33-21.58,13.34-38.84,17.87-58.91c0.91-4.03,2.38-8.43,7.63-8.18
		c4.33,0.2,4.63,4.54,5.88,7.59c6.07,14.9,12.05,29.84,18.18,45.05c11.14-11.03,9.17-28.63,19.23-40c10.29,3.12,5.4,16.75,17,18.97
		c9.42-8.55,10.71-22.37,14.88-34.75c1.6-4.76,2.96-9.8,9.01-9.67c4.87,0.1,5.7,4.99,7.99,8.34c5.57,8.14,4.84,23.33,14.22,24.46
		c6.98,0.84,16.13-9.31,22.96-15.95c8.81-8.56,16.13-4.36,24.12,0.34c14.87,8.75,29.8,17.43,44.71,26.12
		c8.28,4.83,13.18,5.25,14.87-6.98c1.59-11.46,6.27-22.54,10.1-33.61c1.54-4.44,3.36-10.12,8.66-10.81
		c6.19-0.81,7.44,5.49,9.03,9.69c6.94,18.43,13.73,36.93,19.83,55.65c1.23,3.77-4.27,10.29,3.72,11.21
		c6.16,0.7,10.98-3.91,12.2-9.38c2.82-12.68,11.52-23.47,11.33-37.07c-0.06-4.35,1.98-8.26,6.93-8.87c4.47-0.54,6,3.61,6.87,6.53
		c4.63,15.51,17.41,27.92,15.81,45.99c-0.88,9.97,9.29,10.3,16.15,12.83c-1.82,27.95-20.53,50.82-23.7,78.43
		c-0.17,1.44-4.24,3.28-6.61,3.49c-22.66,1.96-44.54,9.87-67.55,8.87c-11.21-0.49-24.61,3.74-28.65-12.85
		c-23.71,3.42-8.94-26.12-24.99-29.42c-0.72-0.15-1.76-2.66-1.4-3.58c10.53-26.5-16.68-44.43-15.76-68.99
		c0.17-4.45-0.98-13.9-9.91-13.25c-7.36,0.54-11.18,7.8-11.27,13.27c-0.4,23.19-15.54,41.83-18.55,64.4
		c-1.05,7.86-8.83,12.97-5.82,24.88c1.65,6.54-17.32,10.1-28.65,8.17c-3.87-0.66-7.48-3.22-11.06-5.19
		c-30.41-16.74-61.44-22.61-94.35-6.86c-7.93,3.79-16.83,5.56-25.38,8.29c-7.14-34.34-18.76-65.89-32.86-96.57
		c-1.01-2.2-3.58-4.88-5.68-5.13c-5.1-0.6-5.98,4.12-8.03,7.75c-9.01,15.98-9.44,35-18.8,51.08c-2.89,4.97-5.47,8.25-9.95,7.83
		c-5.17-0.49-5.8-6.47-4.39-9.97c8.11-20.16-13.97-32.33-13.68-51.31c0.07-4.5-6.16-17.14-12.82-24.09
		c-3.14-3.28-3.27-10.41-9.35-9.63c-5.43,0.7-7.51,6.72-8.06,11.12c-2.59,20.71-14.57,37.99-20.08,57.57
		c-2.22,7.88-8.35,15.68-15.2,13.44c-7.3-2.39-5.1-12.39-1.18-18.07c4.79-6.94-0.97-9.85-3.34-14.26
		C136.58,749.3,122.61,725.87,116.77,698.86z"/>
	<path class="st4" d="M793.33,758.54c16.46-4.7,14.14-20.09,14.25-30.91c0.13-11.59,5.94-18.05,13.51-20.45
		c9.14-2.9,7.95,8.65,11.41,13.81c1.14,1.7,2.52,3.25,3.84,4.83c6.4,7.67,1.38,24.84,13.21,24.9c9.56,0.05,7.76-15.91,12.52-23.99
		c3-5.09,6.49-7.55,10.51-0.77c1.4,2.35,2.46,5.07,4.35,6.93c6.47,6.36,2.01,21.12,12.11,22c10.32,0.9,5.52-15.91,15.51-20.09
		c9.47,8.62,11.52,21.19,16.53,32.22c5.57,12.28,11.03,14.07,20,1.31c6.48-9.23,4.76-20.02,9.83-29.03
		c2.34-4.15,3.55-9.71,9.72-9.06c4.71,0.5,5.99,4.89,7.56,8.81c4.6,11.51,9.42,22.93,14.23,34.35c1.6,3.81,3.23,8.46,8.33,7.68
		c4.77-0.72,8.8-3.11,10.35-8.74c4.28-15.62,9.01-31.12,13.56-46.66c2.28,0.07,4.55,0.14,6.83,0.21
		c7.6,20.17,13.63,41.1,25.79,59.66c11.34-8.72,9.5-28.64,20.91-28.11c10.05,0.46,9.76,17.59,12.92,27.85
		c1.9,6.17,6.95,8.75,12.57,9.12c6.89,0.45,5.28-5.43,6.98-9.83c7.52-19.52,16.09-38.62,21.71-58.87c1.26-4.53,6.19-11.22,9.59-4.25
		c9.84,20.16,24.02,38.92,24.61,62.71c0.08,3.4-1.58,7.3,2.47,8.81c3.95,1.47,6.39-1.79,7.91-4.97
		c7.52-15.78,13.53-32.13,17.77-49.12c1.03-4.13,2.81-8.21,7.97-7.91c4.1,0.24,5.21,4.24,6.49,7.27
		c5.32,12.55,10.04,25.37,15.7,37.76c1.56,3.41,5.29,7.47,8.58,8.04c4.79,0.83,5.84-4.49,7.05-8.5c0.99-3.3,2.26-6.57,3.83-9.62
		c2.12-4.12,2.89-10.28,8.77-10.32c6.14-0.04,7.15,5.68,7.95,10.43c1.6,9.51,8.66,11.58,16.51,12.8
		c0.02,20.11-17.88,33.92-19.41,54.43c-0.28,3.79,10.54,20.18-5.86,19.43c-11.94-0.54-2.94-14.21-8.42-19.93
		c-2.35-2.46-5.48-4.66-6.69-7.62c-3.38-8.26-1.03-22.85-13.31-21.8c-11.1,0.96-9.96,15.76-11.72,24.37
		c-4.09,20.01-16.84,36.77-19.41,57.24c-1.01,8.05-8.86,12.57-15.51,15.74c-13.67,6.52-27.94,11.82-42.06,17.38
		c-9.16,3.61-17.99-1.97-17.38-9.01c1.91-21.93-12.57-37.42-18.38-56.14c-1.23-3.98-2.23-9.28-6.92-9.21
		c-5.21,0.09-8.16,5.08-9.54,9.8c-2.31,7.91-3.69,16.09-5.9,24.03c-1.24,4.47-5.16,6.85-9.45,6.49c-3.75-0.31-6.75-4.27-5.36-7.51
		c9.99-23.17-11.93-37.94-15.24-57.74c-1.19-7.1-6.54-14.85-9.58-22.49c-1.76-4.42-2.1-10.55-7.63-11.37
		c-6.89-1.01-10.45,6.34-11.1,10.36c-4.35,26.61-21.72,49.21-22.54,76.99c-0.3,10.16-13.69,8.5-19.54,15.91
		c0.21-23.56-12.28-42-20.47-61.88c-1.21-2.95-3.66-6.93-6.17-7.48c-5.12-1.12-6.8,4.13-7.81,7.86
		c-6.64,24.45-20.59,46.59-21.6,72.96c-0.3,7.71-7.1,15.07-14.73,18.41c-7.38,3.23-11.25-4.2-14.76-8.69
		c-18.03-23.07-36.43-45.8-58.71-64.93c-6.16-5.29-3.94-12.88-5.32-18.45C811.25,802.62,797.83,782.14,793.33,758.54z"/>
	<path class="st3" d="M1267.56,778.83c-7.85-1.22-14.9-3.29-16.51-12.8c-0.8-4.74-1.81-10.47-7.95-10.43
		c-5.88,0.04-6.65,6.21-8.77,10.32c-1.58,3.06-2.84,6.32-3.83,9.62c-1.21,4.01-2.26,9.33-7.05,8.5c-3.29-0.57-7.03-4.63-8.58-8.04
		c-5.66-12.39-10.39-25.21-15.7-37.76c-1.28-3.03-2.39-7.03-6.49-7.27c-5.16-0.3-6.94,3.77-7.97,7.91
		c-4.24,16.99-10.24,33.33-17.77,49.12c-1.52,3.18-3.96,6.45-7.91,4.97c-4.05-1.51-2.39-5.41-2.47-8.81
		c-0.59-23.79-14.78-42.54-24.61-62.71c-3.4-6.97-8.34-0.28-9.59,4.25c-5.62,20.25-14.19,39.35-21.71,58.87
		c-1.69,4.4-0.09,10.28-6.98,9.83c-5.62-0.36-10.67-2.95-12.57-9.12c-3.16-10.26-2.87-27.39-12.92-27.85
		c-11.41-0.52-9.58,19.39-20.91,28.11c-12.16-18.56-18.19-39.49-25.79-59.66c16.69,5.61,25.32-0.61,25.67-18.04
		c0.13-6.57,2.69-11.68,6.04-17.14c4.43-7.22,1.34-22.44,11.41-21.78c11.55,0.75,10.3,15.7,13.2,25.18
		c1.21,3.95,2.2,7.96,3.21,11.96c1.78,7.1,6.32,10.12,13.56,10.18c6.68,0.06,9.75-3.03,11.53-9.32c2.62-9.29,5.76-18.49,9.56-27.35
		c2.32-5.41,1.13-14.61,8.62-15.23c8.3-0.69,7.52,8.87,9.19,14.02c2.26,6.94,6.12,12.05,11.38,18.4c1.75-5.72,2.64-10.25,4.53-14.31
		c1.66-3.55,1.04-9.24,5.85-10.18c6.54-1.28,6.4,5.79,9.48,8.96c3.77,3.89,0.89,14.26,11,11.87c7.82-1.85,8.21-8.41,8.48-14.76
		c0.65-15.04,8.77-26.94,15.62-39.41c1.76,0.76,3.4,0.92,3.98,1.79c5.38,8,7.27,23.22,16.17,22.89
		c14.47-0.54,8.51-19.87,17.43-28.09c8.29,0.24,2.78,16.25,14.11,13.26c7.39-1.96,10.61-7.4,13.7-14.12c2.3-5,4.94-13.33,12.33-11.8
		c7.58,1.56,5.56,9.82,6.83,15.73c1.27,5.94,3.87,11.6,6.53,19.25c7.34-6.89,7.73-15.3,11.03-22.25c2.81-5.92,1.4-16.59,9.57-16.83
		c8.31-0.24,7.5,10.25,9.62,16.14c9.85,27.41,19.47,34.62,46.9,35.78c9.25,0.39,12.94-1.88,15.24-11.33
		c3.42-14.02,9.43-27.4,14.68-42.01c16.85,16.59,16.76,38.49,27.36,58.09c4.81-12.01,8.71-21.27,12.2-30.68
		c1.23-3.32,1.87-7.09,6.05-7.25c3.95-0.15,5.83,3.11,7.25,6.36c1.37,3.16,3.45,6.29,3.81,9.58c2.1,18.81,12.24,23.44,28.97,17.19
		c-8.41,30.26-15.56,61.25-33.53,87.51c-6.15,8.99,12.42,9.33,2.97,18.25c-6.73,6.35-10.61,15.83-19.88,19.97
		c-14.11-14.91-23.13-10.68-28.4,7.6c-16.99-7.94-11.44-28.4-22.09-39.99c-3.48-3.79-3.33-12.36-9.99-11.48
		c-6.79,0.9-8.59,7.73-9.52,14.37c-2.2,15.73-6.72,30.61-18.37,43.02c4.53-20.95-15-33.23-17.11-51.85
		c-0.86-7.58-2.45-18.07-12.29-22.21c-10.38,9.21-8.72,23.27-14.7,34.04c-11.01-2.67-4.33-15.65-12.38-20.94
		c-4.79-3.15-10.6-5.64-10.67-0.11C1277.46,760.41,1266.31,767.45,1267.56,778.83z"/>
	<path class="st4" d="M1300.64,769.85c5.98-10.77,4.31-24.83,14.7-34.04c9.85,4.14,11.44,14.62,12.29,22.21
		c2.11,18.62,21.64,30.9,17.11,51.85c11.64-12.41,16.17-27.3,18.37-43.02c0.93-6.64,2.73-13.47,9.52-14.37
		c6.66-0.88,6.51,7.69,9.99,11.48c10.65,11.6,5.1,32.05,22.09,39.99c-6.24,21.14-11.92,42.48-19.2,63.25
		c-1.51,4.31-3.21,13.18-12.01,11.51c-11.61-2.2-26.47,6.62-34.29-6.24c-4.04-6.65-7.15-10.65-14.45-11.93
		c-1.72-0.3-4.53-3.53-4.46-3.63c10.83-14.46-12.61-25.77-2.59-43.7C1322.74,804.23,1303.92,785.96,1300.64,769.85z"/>
	<path class="st4" d="M735.05,754.88c8.29-6.19,5.16-24.83,16.56-22.78c7.47,1.34,12,16.42,14.46,27.19
		c1.26,5.52,4.37,10.27,11,10.88c-1.51,16.9-12.38,29.62-19.82,43.8c-4.67,8.89-11.65,2.32-10.58-2.03
		C751.9,790.68,729.47,775.66,735.05,754.88z"/>
	<path class="st0" d="M964.14,628.82c1.38-1.4,2.75-2.81,4.13-4.21c15.2,3.8,27.22-8.36,41.67-8.33
		C995.96,632.37,973.85,638.43,964.14,628.82z"/>
	<path class="st0" d="M540.15,525.32c13.61-7.82,18.13,0.65,21.14,11.84C552.57,536.2,545.19,532.85,540.15,525.32z"/>
	<path class="st0" d="M1009.75,616.42c3.18-4.53,8-4.2,12.68-4.28C1019.24,616.66,1014.45,616.4,1009.75,616.42z"/>
	<path class="st0" d="M1541.55,537.22c-0.95,0.93-1.9,1.86-2.85,2.79c-0.36-0.66-0.71-1.31-1.07-1.97c1.35-0.23,2.69-0.45,4.04-0.68
		C1541.67,537.36,1541.55,537.22,1541.55,537.22z"/>
</g>
</svg>
